<svg width="32" height="18" viewBox="0 0 32 18" fill="none" xmlns="http://www.w3.org/2000/svg">
<path fill-rule="evenodd" clip-rule="evenodd" d="M30.2224 0.387448C30.2566 0.404392 30.29 0.422327 30.3227 0.441208C30.9106 0.780516 31.2607 1.42511 31.2192 2.10908L30.8525 8.14667C30.7922 9.13895 29.9389 9.89449 28.9466 9.83422C27.9544 9.77395 27.1988 8.92068 27.2591 7.9284L27.3676 6.1425L18.8671 13.4561C18.1401 14.0816 17.0504 14.0273 16.3892 13.3326L12.4969 9.24279L3.19178 17.4637C2.44678 18.1219 1.30926 18.0516 0.651056 17.3066C-0.00714648 16.5616 0.0632191 15.424 0.808222 14.7658L11.4132 5.39648C12.1387 4.75546 13.2414 4.80318 13.9088 5.50449L17.8168 9.61067L24.5705 3.79995H22.7187C21.7246 3.79995 20.9187 2.99406 20.9187 1.99995C20.9187 1.00584 21.7246 0.199951 22.7187 0.199951H29.4225C29.6965 0.199951 29.9638 0.262412 30.2055 0.379182C30.2112 0.381906 30.2168 0.384661 30.2224 0.387448ZM30.2224 0.387448C30.2168 0.384661 30.2112 0.381906 30.2055 0.379182Z" fill="white"/>
</svg>
