<svg width="2041" height="1112" viewBox="0 0 2041 1112" fill="none" xmlns="http://www.w3.org/2000/svg">
<g opacity="0.3" clip-path="url(#clip0_3_9816)">
<path d="M203.057 800.103C276.671 800.103 336.347 740.427 336.347 666.813C336.347 593.199 276.671 533.523 203.057 533.523C129.443 533.523 69.7666 593.199 69.7666 666.813C69.7666 740.427 129.443 800.103 203.057 800.103Z" fill="url(#paint0_radial_3_9816)"/>
<path d="M1358.88 936.585C1358.88 927.99 1351.91 921.019 1343.31 921.019C1334.72 921.019 1327.72 927.99 1327.72 936.585C1327.72 945.18 1334.69 952.179 1343.31 952.179C1351.91 952.179 1358.88 945.18 1358.88 936.585Z" fill="url(#paint1_radial_3_9816)"/>
<path d="M2040.98 28.9762C2040.98 20.3814 2034.01 13.3823 2025.41 13.3823C2016.82 13.3823 2009.82 20.3534 2009.82 28.9762C2009.82 37.5711 2016.79 44.5701 2025.41 44.5701C2034.01 44.5421 2040.98 37.5711 2040.98 28.9762Z" fill="url(#paint2_radial_3_9816)"/>
<path d="M352.696 95.9151C356.562 95.9151 359.695 92.7815 359.695 88.916C359.695 85.0506 356.562 81.917 352.696 81.917C348.831 81.917 345.697 85.0506 345.697 88.916C345.697 92.7815 348.831 95.9151 352.696 95.9151Z" fill="url(#paint3_radial_3_9816)"/>
<path d="M971.385 643.24C975.25 643.24 978.384 640.107 978.384 636.241C978.384 632.376 975.25 629.242 971.385 629.242C967.519 629.242 964.386 632.376 964.386 636.241C964.386 640.107 967.519 643.24 971.385 643.24Z" fill="url(#paint4_radial_3_9816)"/>
<path d="M1812.22 111.733C1816.09 111.733 1819.22 108.599 1819.22 104.734C1819.22 100.868 1816.09 97.7346 1812.22 97.7346C1808.36 97.7346 1805.22 100.868 1805.22 104.734C1805.22 108.599 1808.36 111.733 1812.22 111.733Z" fill="url(#paint5_radial_3_9816)"/>
<path d="M1425.48 450.543C1425.48 441.948 1418.51 434.949 1409.89 434.949C1401.29 434.949 1394.3 441.92 1394.3 450.543C1394.3 459.138 1401.27 466.137 1409.89 466.137C1418.48 466.109 1425.48 459.138 1425.48 450.543Z" fill="url(#paint6_radial_3_9816)"/>
<path opacity="0.2" d="M709.06 341.386C709.06 332.791 702.089 325.792 693.466 325.792C684.871 325.792 677.872 332.763 677.872 341.386C677.872 349.981 684.843 356.98 693.466 356.98C702.089 356.952 709.06 349.981 709.06 341.386Z" fill="url(#paint7_radial_3_9816)"/>
<path opacity="0.2" d="M124.527 341.386C124.527 332.791 117.556 325.792 108.933 325.792C100.338 325.792 93.3394 332.763 93.3394 341.386C93.3394 349.981 100.31 356.98 108.933 356.98C117.528 356.952 124.527 349.981 124.527 341.386Z" fill="url(#paint8_radial_3_9816)"/>
<path opacity="0.2" d="M1529.57 780.002C1529.57 771.407 1522.6 764.436 1513.98 764.436C1505.38 764.436 1498.41 771.407 1498.41 780.002C1498.41 788.597 1505.38 795.596 1513.98 795.596C1522.6 795.568 1529.57 788.597 1529.57 780.002Z" fill="url(#paint9_radial_3_9816)"/>
<path opacity="0.2" d="M1010.83 905.426C1010.83 896.831 1003.86 889.86 995.265 889.86C986.671 889.86 979.671 896.831 979.671 905.426C979.671 914.021 986.643 921.02 995.265 921.02C1003.86 921.02 1010.83 914.021 1010.83 905.426Z" fill="url(#paint10_radial_3_9816)"/>
<path opacity="0.2" d="M259.385 494.805C259.385 486.21 252.414 479.211 243.791 479.211C235.196 479.211 228.197 486.182 228.197 494.805C228.197 503.4 235.168 510.399 243.791 510.399C252.414 510.371 259.385 503.4 259.385 494.805Z" fill="url(#paint11_radial_3_9816)"/>
<path opacity="0.2" d="M1996.3 400.01C1996.3 391.415 1989.33 384.416 1980.7 384.416C1972.08 384.416 1965.14 391.387 1965.14 400.01C1965.14 408.605 1972.11 415.604 1980.7 415.604C1989.3 415.604 1996.3 408.633 1996.3 400.01Z" fill="url(#paint12_radial_3_9816)"/>
<path d="M673.281 974.997C673.281 966.402 666.31 959.431 657.715 959.431C649.12 959.431 642.121 966.402 642.121 974.997C642.121 983.591 649.092 990.59 657.715 990.59C666.31 990.59 673.281 983.619 673.281 974.997Z" fill="url(#paint13_radial_3_9816)"/>
<path d="M1906.23 606.09C1906.23 597.496 1899.26 590.524 1890.64 590.524C1882.05 590.524 1875.07 597.496 1875.07 606.09C1875.07 614.685 1882.05 621.656 1890.64 621.656C1899.26 621.656 1906.23 614.685 1906.23 606.09Z" fill="url(#paint14_radial_3_9816)"/>
<path d="M1871.74 429.042C1871.74 420.447 1864.77 413.448 1856.15 413.448C1847.55 413.448 1840.58 420.419 1840.58 429.042C1840.58 437.637 1847.55 444.636 1856.15 444.636C1864.77 444.608 1871.74 437.637 1871.74 429.042Z" fill="url(#paint15_radial_3_9816)"/>
<path d="M1663.12 163.61C1666.98 163.61 1670.11 160.476 1670.11 156.611C1670.11 152.745 1666.98 149.612 1663.12 149.612C1659.25 149.612 1656.12 152.745 1656.12 156.611C1656.12 160.476 1659.25 163.61 1663.12 163.61Z" fill="url(#paint16_radial_3_9816)"/>
<path d="M468.237 436.041C472.102 436.041 475.236 432.907 475.236 429.042C475.236 425.177 472.102 422.043 468.237 422.043C464.371 422.043 461.238 425.177 461.238 429.042C461.238 432.907 464.371 436.041 468.237 436.041Z" fill="url(#paint17_radial_3_9816)"/>
<path d="M1259.77 547.242C1259.77 543.379 1256.64 540.243 1252.77 540.243C1248.91 540.243 1245.78 543.379 1245.78 547.242C1245.78 551.106 1248.91 554.242 1252.77 554.242C1256.67 554.242 1259.77 551.106 1259.77 547.242Z" fill="url(#paint18_radial_3_9816)"/>
<path d="M115.932 185.139C119.798 185.139 122.931 182.005 122.931 178.14C122.931 174.274 119.798 171.141 115.932 171.141C112.067 171.141 108.933 174.274 108.933 178.14C108.933 182.005 112.067 185.139 115.932 185.139Z" fill="url(#paint19_radial_3_9816)"/>
<path d="M1566 537.164C1569.86 537.164 1573 534.03 1573 530.165C1573 526.299 1569.86 523.166 1566 523.166C1562.13 523.166 1559 526.299 1559 530.165C1559 534.03 1562.13 537.164 1566 537.164Z" fill="url(#paint20_radial_3_9816)"/>
<path d="M1515.46 606.09C1519.33 606.09 1522.46 602.957 1522.46 599.091C1522.46 595.226 1519.33 592.092 1515.46 592.092C1511.6 592.092 1508.46 595.226 1508.46 599.091C1508.46 602.957 1511.6 606.09 1515.46 606.09Z" fill="url(#paint21_radial_3_9816)"/>
<path d="M1731.68 744.531C1731.68 735.936 1724.71 728.965 1716.08 728.965C1707.49 728.965 1700.52 735.936 1700.52 744.531C1700.52 753.126 1707.49 760.125 1716.08 760.125C1724.71 760.125 1731.68 753.154 1731.68 744.531Z" fill="url(#paint22_radial_3_9816)"/>
<path opacity="0.2" d="M1472.68 936.053C1472.68 927.458 1465.71 920.459 1457.09 920.459C1448.5 920.459 1441.53 927.43 1441.53 936.053C1441.53 944.648 1448.5 951.619 1457.09 951.619C1465.69 951.619 1472.68 944.648 1472.68 936.053Z" fill="url(#paint23_radial_3_9816)"/>
<path d="M1681.54 877.289C1685.4 877.289 1688.54 874.155 1688.54 870.29C1688.54 866.424 1685.4 863.291 1681.54 863.291C1677.67 863.291 1674.54 866.424 1674.54 870.29C1674.54 874.155 1677.67 877.289 1681.54 877.289Z" fill="url(#paint24_radial_3_9816)"/>
<path d="M1559 848.258C1562.86 848.258 1566 845.124 1566 841.259C1566 837.393 1562.86 834.26 1559 834.26C1555.13 834.26 1552 837.393 1552 841.259C1552 845.124 1555.13 848.258 1559 848.258Z" fill="url(#paint25_radial_3_9816)"/>
<path d="M704.049 434.865C707.914 434.865 711.048 431.732 711.048 427.866C711.048 424.001 707.914 420.867 704.049 420.867C700.183 420.867 697.05 424.001 697.05 427.866C697.05 431.732 700.183 434.865 704.049 434.865Z" fill="url(#paint26_radial_3_9816)"/>
<path d="M653.516 503.792C657.381 503.792 660.515 500.658 660.515 496.793C660.515 492.927 657.381 489.794 653.516 489.794C649.65 489.794 646.517 492.927 646.517 496.793C646.517 500.658 649.65 503.792 653.516 503.792Z" fill="url(#paint27_radial_3_9816)"/>
<path opacity="0.2" d="M840.502 15.5939C840.502 6.99905 833.531 0 824.908 0C816.314 0 809.315 6.97106 809.315 15.5939C809.315 24.1887 816.286 31.1878 824.908 31.1878C833.531 31.1598 840.502 24.1887 840.502 15.5939Z" fill="url(#paint28_radial_3_9816)"/>
<path d="M1191.57 38.1585C1195.44 38.1585 1198.57 35.0249 1198.57 31.1595C1198.57 27.294 1195.44 24.1604 1191.57 24.1604C1187.71 24.1604 1184.58 27.294 1184.58 31.1595C1184.58 35.0249 1187.71 38.1585 1191.57 38.1585Z" fill="url(#paint29_radial_3_9816)"/>
<path d="M1055.68 97.7344C1059.55 97.7344 1062.68 94.6009 1062.68 90.7354C1062.68 86.8699 1059.55 83.7363 1055.68 83.7363C1051.82 83.7363 1048.68 86.8699 1048.68 90.7354C1048.68 94.6009 1051.82 97.7344 1055.68 97.7344Z" fill="url(#paint30_radial_3_9816)"/>
<path d="M835.491 109.073C839.356 109.073 842.49 105.939 842.49 102.074C842.49 98.2085 839.356 95.075 835.491 95.075C831.626 95.075 828.492 98.2085 828.492 102.074C828.492 105.939 831.626 109.073 835.491 109.073Z" fill="url(#paint31_radial_3_9816)"/>
<path d="M818.777 662.503C822.643 662.503 825.776 659.369 825.776 655.503C825.776 651.638 822.643 648.504 818.777 648.504C814.912 648.504 811.778 651.638 811.778 655.503C811.778 659.369 814.912 662.503 818.777 662.503Z" fill="url(#paint32_radial_3_9816)"/>
<path opacity="0.2" d="M475.852 680.308C475.852 671.713 468.881 664.714 460.258 664.714C451.663 664.714 444.664 671.685 444.664 680.308C444.664 688.903 451.635 695.874 460.258 695.874C468.881 695.902 475.852 688.931 475.852 680.308Z" fill="url(#paint33_radial_3_9816)"/>
<path opacity="0.2" d="M610.737 833.728C610.737 825.133 603.766 818.162 595.144 818.162C586.521 818.162 579.55 825.133 579.55 833.728C579.55 842.323 586.521 849.322 595.144 849.322C603.766 849.322 610.737 842.351 610.737 833.728Z" fill="url(#paint34_radial_3_9816)"/>
<path d="M697.05 745.96C700.915 745.96 704.049 742.826 704.049 738.96C704.049 735.095 700.915 731.961 697.05 731.961C693.184 731.961 690.051 735.095 690.051 738.96C690.051 742.826 693.184 745.96 697.05 745.96Z" fill="url(#paint35_radial_3_9816)"/>
<path d="M71.5583 903.942C71.5583 884.176 55.5445 868.163 35.7792 868.163C16.0138 868.163 0 884.176 0 903.942C0 923.707 16.0138 939.721 35.7792 939.721C55.5445 939.721 71.5583 923.707 71.5583 903.942Z" fill="url(#paint36_radial_3_9816)"/>
<path d="M306.391 893.275C323.6 893.275 337.55 879.324 337.55 862.115C337.55 844.906 323.6 830.956 306.391 830.956C289.181 830.956 275.231 844.906 275.231 862.115C275.231 879.324 289.181 893.275 306.391 893.275Z" fill="url(#paint37_radial_3_9816)"/>
<path d="M701.165 1096.3C701.165 1087.71 694.194 1080.74 685.571 1080.74C676.976 1080.74 669.977 1087.71 669.977 1096.3C669.977 1104.9 676.948 1111.9 685.571 1111.9C694.194 1111.9 701.165 1104.93 701.165 1096.3Z" fill="url(#paint38_radial_3_9816)"/>
<path opacity="0.2" d="M871.858 939.721C871.858 931.126 864.887 924.155 856.264 924.155C847.669 924.155 840.67 931.126 840.67 939.721C840.67 948.316 847.641 955.315 856.264 955.315C864.887 955.287 871.858 948.316 871.858 939.721Z" fill="url(#paint39_radial_3_9816)"/>
<path opacity="0.2" d="M353.116 1065.14C353.116 1056.55 346.145 1049.58 337.522 1049.58C328.928 1049.58 321.928 1056.55 321.928 1065.14C321.928 1073.74 328.9 1080.74 337.522 1080.74C346.145 1080.74 353.116 1073.77 353.116 1065.14Z" fill="url(#paint40_radial_3_9816)"/>
<path opacity="0.2" d="M680.084 942.352C680.084 933.757 673.113 926.758 664.49 926.758C655.895 926.758 648.896 933.729 648.896 942.352C648.896 950.975 655.867 957.918 664.49 957.918C673.113 957.918 680.084 950.947 680.084 942.352Z" fill="url(#paint41_radial_3_9816)"/>
<path opacity="0.2" d="M814.97 1095.77C814.97 1087.18 807.999 1080.18 799.376 1080.18C790.781 1080.18 783.782 1087.15 783.782 1095.77C783.782 1104.37 790.753 1111.34 799.376 1111.34C807.971 1111.34 814.97 1104.37 814.97 1095.77Z" fill="url(#paint42_radial_3_9816)"/>
<path d="M901.282 1007.98C905.148 1007.98 908.281 1004.84 908.281 1000.98C908.281 997.111 905.148 993.978 901.282 993.978C897.417 993.978 894.283 997.111 894.283 1000.98C894.283 1004.84 897.417 1007.98 901.282 1007.98Z" fill="url(#paint43_radial_3_9816)"/>
<path d="M671.517 786.106C675.383 786.106 678.516 782.972 678.516 779.106C678.516 775.241 675.383 772.107 671.517 772.107C667.652 772.107 664.518 775.241 664.518 779.106C664.518 782.972 667.652 786.106 671.517 786.106Z" fill="url(#paint44_radial_3_9816)"/>
<path d="M212.015 801.952C212.015 793.357 205.044 786.386 196.421 786.386C187.827 786.386 180.828 793.357 180.828 801.952C180.828 810.546 187.799 817.545 196.421 817.545C205.044 817.545 212.015 810.574 212.015 801.952Z" fill="url(#paint45_radial_3_9816)"/>
<path d="M161.874 934.71C165.74 934.71 168.873 931.576 168.873 927.71C168.873 923.845 165.74 920.711 161.874 920.711C158.009 920.711 154.875 923.845 154.875 927.71C154.875 931.576 158.009 934.71 161.874 934.71Z" fill="url(#paint46_radial_3_9816)"/>
<path d="M39.3346 905.677C43.2001 905.677 46.3337 902.544 46.3337 898.678C46.3337 894.813 43.2001 891.679 39.3346 891.679C35.4692 891.679 32.3356 894.813 32.3356 898.678C32.3356 902.544 35.4692 905.677 39.3346 905.677Z" fill="url(#paint47_radial_3_9816)"/>
<path d="M1913.91 978.048C1933.67 978.048 1949.68 962.029 1949.68 942.268C1949.68 922.508 1933.67 906.489 1913.91 906.489C1894.14 906.489 1878.13 922.508 1878.13 942.268C1878.13 962.029 1894.14 978.048 1913.91 978.048Z" fill="url(#paint48_radial_3_9816)"/>
<path d="M1643.32 1015.25C1660.53 1015.25 1674.48 1001.3 1674.48 984.094C1674.48 966.885 1660.53 952.935 1643.32 952.935C1626.11 952.935 1612.16 966.885 1612.16 984.094C1612.16 1001.3 1626.11 1015.25 1643.32 1015.25Z" fill="url(#paint49_radial_3_9816)"/>
<path opacity="0.2" d="M1077.83 906.49C1077.83 915.085 1084.8 922.056 1093.39 922.056C1101.99 922.056 1108.99 915.085 1108.99 906.49C1108.99 897.895 1102.01 890.896 1093.39 890.896C1084.8 890.896 1077.83 897.895 1077.83 906.49Z" fill="url(#paint50_radial_3_9816)"/>
<path opacity="0.2" d="M1596.57 781.067C1596.57 789.662 1603.54 796.633 1612.13 796.633C1620.73 796.633 1627.7 789.662 1627.7 781.067C1627.7 772.472 1620.73 765.501 1612.13 765.501C1603.54 765.473 1596.57 772.444 1596.57 781.067Z" fill="url(#paint51_radial_3_9816)"/>
<path opacity="0.2" d="M1269.6 903.858C1269.6 912.453 1276.57 919.452 1285.17 919.452C1293.76 919.452 1300.76 912.481 1300.76 903.858C1300.76 895.263 1293.79 888.292 1285.17 888.292C1276.57 888.292 1269.6 895.263 1269.6 903.858Z" fill="url(#paint52_radial_3_9816)"/>
<path d="M1278.17 1074.1C1282.03 1074.1 1285.17 1070.97 1285.17 1067.1C1285.17 1063.24 1282.03 1060.1 1278.17 1060.1C1274.3 1060.1 1271.17 1063.24 1271.17 1067.1C1271.17 1070.97 1274.3 1074.1 1278.17 1074.1Z" fill="url(#paint53_radial_3_9816)"/>
<path d="M1737.67 1044.23C1737.67 1052.83 1744.64 1059.82 1753.26 1059.82C1761.86 1059.82 1768.83 1052.85 1768.83 1044.23C1768.83 1035.64 1761.86 1028.67 1753.26 1028.67C1744.64 1028.67 1737.67 1035.64 1737.67 1044.23Z" fill="url(#paint54_radial_3_9816)"/>
<path d="M1787.81 925.499C1791.68 925.499 1794.81 922.366 1794.81 918.5C1794.81 914.635 1791.68 911.501 1787.81 911.501C1783.94 911.501 1780.81 914.635 1780.81 918.5C1780.81 922.366 1783.94 925.499 1787.81 925.499Z" fill="url(#paint55_radial_3_9816)"/>
<path d="M1910.35 954.531C1914.21 954.531 1917.35 951.398 1917.35 947.532C1917.35 943.667 1914.21 940.533 1910.35 940.533C1906.48 940.533 1903.35 943.667 1903.35 947.532C1903.35 951.398 1906.48 954.531 1910.35 954.531Z" fill="url(#paint56_radial_3_9816)"/>
<path d="M467.285 524.09C471.15 524.09 474.284 520.956 474.284 517.091C474.284 513.225 471.15 510.092 467.285 510.092C463.419 510.092 460.286 513.225 460.286 517.091C460.286 520.956 463.419 524.09 467.285 524.09Z" fill="url(#paint57_radial_3_9816)"/>
</g>
<defs>
<radialGradient id="paint0_radial_3_9816" cx="0" cy="0" r="1" gradientUnits="userSpaceOnUse" gradientTransform="translate(203.057 666.811) scale(133.277)">
<stop offset="0.5642" stop-color="#DE0000"/>
<stop offset="0.6313" stop-color="#DA0000"/>
<stop offset="0.6907" stop-color="#D00000"/>
<stop offset="0.7473" stop-color="#BE0000"/>
<stop offset="0.8021" stop-color="#A40000"/>
<stop offset="0.8556" stop-color="#830000"/>
<stop offset="0.9082" stop-color="#5B0000"/>
<stop offset="0.959" stop-color="#2C0000"/>
<stop offset="1"/>
</radialGradient>
<radialGradient id="paint1_radial_3_9816" cx="0" cy="0" r="1" gradientUnits="userSpaceOnUse" gradientTransform="translate(1343.3 936.589) scale(15.581)">
<stop offset="0.5642" stop-color="#F50000"/>
<stop offset="0.6284" stop-color="#F10000"/>
<stop offset="0.6852" stop-color="#E70000"/>
<stop offset="0.7393" stop-color="#D50000"/>
<stop offset="0.7917" stop-color="#BB0000"/>
<stop offset="0.8429" stop-color="#9A0000"/>
<stop offset="0.8933" stop-color="#720000"/>
<stop offset="0.9428" stop-color="#420000"/>
<stop offset="0.9906" stop-color="#0C0000"/>
<stop offset="1"/>
</radialGradient>
<radialGradient id="paint2_radial_3_9816" cx="0" cy="0" r="1" gradientUnits="userSpaceOnUse" gradientTransform="translate(2025.4 28.9737) scale(15.581)">
<stop offset="0.5642" stop-color="#F50000"/>
<stop offset="0.6284" stop-color="#F10000"/>
<stop offset="0.6852" stop-color="#E70000"/>
<stop offset="0.7393" stop-color="#D50000"/>
<stop offset="0.7917" stop-color="#BB0000"/>
<stop offset="0.8429" stop-color="#9A0000"/>
<stop offset="0.8933" stop-color="#720000"/>
<stop offset="0.9428" stop-color="#420000"/>
<stop offset="0.9906" stop-color="#0C0000"/>
<stop offset="1"/>
</radialGradient>
<radialGradient id="paint3_radial_3_9816" cx="0" cy="0" r="1" gradientUnits="userSpaceOnUse" gradientTransform="translate(352.707 88.9113) scale(6.99904)">
<stop offset="0.5642" stop-color="#F50000"/>
<stop offset="0.6284" stop-color="#F10000"/>
<stop offset="0.6852" stop-color="#E70000"/>
<stop offset="0.7393" stop-color="#D50000"/>
<stop offset="0.7917" stop-color="#BB0000"/>
<stop offset="0.8429" stop-color="#9A0000"/>
<stop offset="0.8933" stop-color="#720000"/>
<stop offset="0.9428" stop-color="#420000"/>
<stop offset="0.9906" stop-color="#0C0000"/>
<stop offset="1"/>
</radialGradient>
<radialGradient id="paint4_radial_3_9816" cx="0" cy="0" r="1" gradientUnits="userSpaceOnUse" gradientTransform="translate(971.389 636.245) scale(6.99905)">
<stop offset="0.5642" stop-color="#F50000"/>
<stop offset="0.6284" stop-color="#F10000"/>
<stop offset="0.6852" stop-color="#E70000"/>
<stop offset="0.7393" stop-color="#D50000"/>
<stop offset="0.7917" stop-color="#BB0000"/>
<stop offset="0.8429" stop-color="#9A0000"/>
<stop offset="0.8933" stop-color="#720000"/>
<stop offset="0.9428" stop-color="#420000"/>
<stop offset="0.9906" stop-color="#0C0000"/>
<stop offset="1"/>
</radialGradient>
<radialGradient id="paint5_radial_3_9816" cx="0" cy="0" r="1" gradientUnits="userSpaceOnUse" gradientTransform="translate(1812.23 104.745) scale(6.99905)">
<stop offset="0.5642" stop-color="#F50000"/>
<stop offset="0.6284" stop-color="#F10000"/>
<stop offset="0.6852" stop-color="#E70000"/>
<stop offset="0.7393" stop-color="#D50000"/>
<stop offset="0.7917" stop-color="#BB0000"/>
<stop offset="0.8429" stop-color="#9A0000"/>
<stop offset="0.8933" stop-color="#720000"/>
<stop offset="0.9428" stop-color="#420000"/>
<stop offset="0.9906" stop-color="#0C0000"/>
<stop offset="1"/>
</radialGradient>
<radialGradient id="paint6_radial_3_9816" cx="0" cy="0" r="1" gradientUnits="userSpaceOnUse" gradientTransform="translate(1409.89 450.536) scale(15.581)">
<stop offset="0.5642" stop-color="#6E008B"/>
<stop offset="0.6471" stop-color="#6B0087"/>
<stop offset="0.7204" stop-color="#63007D"/>
<stop offset="0.7902" stop-color="#54006B"/>
<stop offset="0.8578" stop-color="#400051"/>
<stop offset="0.9239" stop-color="#260030"/>
<stop offset="0.9879" stop-color="#070008"/>
<stop offset="1"/>
</radialGradient>
<radialGradient id="paint7_radial_3_9816" cx="0" cy="0" r="1" gradientUnits="userSpaceOnUse" gradientTransform="translate(693.489 341.374) scale(15.581)">
<stop offset="0.5642" stop-color="#EA8100"/>
<stop offset="0.6297" stop-color="#E67F00"/>
<stop offset="0.6877" stop-color="#DC7900"/>
<stop offset="0.743" stop-color="#CA6F00"/>
<stop offset="0.7965" stop-color="#B06100"/>
<stop offset="0.8487" stop-color="#8F4F00"/>
<stop offset="0.9001" stop-color="#673900"/>
<stop offset="0.95" stop-color="#371F00"/>
<stop offset="0.9989" stop-color="#010100"/>
<stop offset="1"/>
</radialGradient>
<radialGradient id="paint8_radial_3_9816" cx="0" cy="0" r="1" gradientUnits="userSpaceOnUse" gradientTransform="translate(108.937 341.374) scale(15.5807)">
<stop offset="0.5642" stop-color="#EA8100"/>
<stop offset="0.6297" stop-color="#E67F00"/>
<stop offset="0.6877" stop-color="#DC7900"/>
<stop offset="0.743" stop-color="#CA6F00"/>
<stop offset="0.7965" stop-color="#B06100"/>
<stop offset="0.8487" stop-color="#8F4F00"/>
<stop offset="0.9001" stop-color="#673900"/>
<stop offset="0.95" stop-color="#371F00"/>
<stop offset="0.9989" stop-color="#010100"/>
<stop offset="1"/>
</radialGradient>
<radialGradient id="paint9_radial_3_9816" cx="0" cy="0" r="1" gradientUnits="userSpaceOnUse" gradientTransform="translate(1514 779.991) scale(15.581)">
<stop offset="0.5642" stop-color="#EA8100"/>
<stop offset="0.6297" stop-color="#E67F00"/>
<stop offset="0.6877" stop-color="#DC7900"/>
<stop offset="0.743" stop-color="#CA6F00"/>
<stop offset="0.7965" stop-color="#B06100"/>
<stop offset="0.8487" stop-color="#8F4F00"/>
<stop offset="0.9001" stop-color="#673900"/>
<stop offset="0.95" stop-color="#371F00"/>
<stop offset="0.9989" stop-color="#010100"/>
<stop offset="1"/>
</radialGradient>
<radialGradient id="paint10_radial_3_9816" cx="0" cy="0" r="1" gradientUnits="userSpaceOnUse" gradientTransform="translate(995.252 905.427) scale(15.581)">
<stop offset="0.5642" stop-color="#EA8100"/>
<stop offset="0.6297" stop-color="#E67F00"/>
<stop offset="0.6877" stop-color="#DC7900"/>
<stop offset="0.743" stop-color="#CA6F00"/>
<stop offset="0.7965" stop-color="#B06100"/>
<stop offset="0.8487" stop-color="#8F4F00"/>
<stop offset="0.9001" stop-color="#673900"/>
<stop offset="0.95" stop-color="#371F00"/>
<stop offset="0.9989" stop-color="#010100"/>
<stop offset="1"/>
</radialGradient>
<radialGradient id="paint11_radial_3_9816" cx="0" cy="0" r="1" gradientUnits="userSpaceOnUse" gradientTransform="translate(243.802 494.794) scale(15.581)">
<stop offset="0.5642" stop-color="#EA8100"/>
<stop offset="0.6297" stop-color="#E67F00"/>
<stop offset="0.6877" stop-color="#DC7900"/>
<stop offset="0.743" stop-color="#CA6F00"/>
<stop offset="0.7965" stop-color="#B06100"/>
<stop offset="0.8487" stop-color="#8F4F00"/>
<stop offset="0.9001" stop-color="#673900"/>
<stop offset="0.95" stop-color="#371F00"/>
<stop offset="0.9989" stop-color="#010100"/>
<stop offset="1"/>
</radialGradient>
<radialGradient id="paint12_radial_3_9816" cx="0" cy="0" r="1" gradientUnits="userSpaceOnUse" gradientTransform="translate(1980.71 400.016) scale(15.5807)">
<stop offset="0.5642" stop-color="#EA8100"/>
<stop offset="0.6297" stop-color="#E67F00"/>
<stop offset="0.6877" stop-color="#DC7900"/>
<stop offset="0.743" stop-color="#CA6F00"/>
<stop offset="0.7965" stop-color="#B06100"/>
<stop offset="0.8487" stop-color="#8F4F00"/>
<stop offset="0.9001" stop-color="#673900"/>
<stop offset="0.95" stop-color="#371F00"/>
<stop offset="0.9989" stop-color="#010100"/>
<stop offset="1"/>
</radialGradient>
<radialGradient id="paint13_radial_3_9816" cx="0" cy="0" r="1" gradientUnits="userSpaceOnUse" gradientTransform="translate(657.712 975.003) scale(15.5807)">
<stop offset="0.5642" stop-color="#F50000"/>
<stop offset="0.6284" stop-color="#F10000"/>
<stop offset="0.6852" stop-color="#E70000"/>
<stop offset="0.7393" stop-color="#D50000"/>
<stop offset="0.7917" stop-color="#BB0000"/>
<stop offset="0.8429" stop-color="#9A0000"/>
<stop offset="0.8933" stop-color="#720000"/>
<stop offset="0.9428" stop-color="#420000"/>
<stop offset="0.9906" stop-color="#0C0000"/>
<stop offset="1"/>
</radialGradient>
<radialGradient id="paint14_radial_3_9816" cx="0" cy="0" r="1" gradientUnits="userSpaceOnUse" gradientTransform="translate(1890.66 606.089) scale(15.5796)">
<stop offset="0.5642" stop-color="#F50000"/>
<stop offset="0.6284" stop-color="#F10000"/>
<stop offset="0.6852" stop-color="#E70000"/>
<stop offset="0.7393" stop-color="#D50000"/>
<stop offset="0.7917" stop-color="#BB0000"/>
<stop offset="0.8429" stop-color="#9A0000"/>
<stop offset="0.8933" stop-color="#720000"/>
<stop offset="0.9428" stop-color="#420000"/>
<stop offset="0.9906" stop-color="#0C0000"/>
<stop offset="1"/>
</radialGradient>
<radialGradient id="paint15_radial_3_9816" cx="0" cy="0" r="1" gradientUnits="userSpaceOnUse" gradientTransform="translate(1856.17 429.031) scale(15.581)">
<stop offset="0.5642" stop-color="#F50000"/>
<stop offset="0.6284" stop-color="#F10000"/>
<stop offset="0.6852" stop-color="#E70000"/>
<stop offset="0.7393" stop-color="#D50000"/>
<stop offset="0.7917" stop-color="#BB0000"/>
<stop offset="0.8429" stop-color="#9A0000"/>
<stop offset="0.8933" stop-color="#720000"/>
<stop offset="0.9428" stop-color="#420000"/>
<stop offset="0.9906" stop-color="#0C0000"/>
<stop offset="1"/>
</radialGradient>
<radialGradient id="paint16_radial_3_9816" cx="0" cy="0" r="1" gradientUnits="userSpaceOnUse" gradientTransform="translate(1663.11 156.616) scale(6.99905)">
<stop offset="0.5642" stop-color="#7000B2"/>
<stop offset="0.6383" stop-color="#6E00AE"/>
<stop offset="0.704" stop-color="#6700A4"/>
<stop offset="0.7664" stop-color="#5C0092"/>
<stop offset="0.8269" stop-color="#4C0078"/>
<stop offset="0.886" stop-color="#370057"/>
<stop offset="0.9432" stop-color="#1E002F"/>
<stop offset="0.9994" stop-color="#000001"/>
<stop offset="1"/>
</radialGradient>
<radialGradient id="paint17_radial_3_9816" cx="0" cy="0" r="1" gradientUnits="userSpaceOnUse" gradientTransform="translate(468.25 429.031) scale(6.99905)">
<stop offset="0.5642" stop-color="#7000B2"/>
<stop offset="0.6383" stop-color="#6E00AE"/>
<stop offset="0.704" stop-color="#6700A4"/>
<stop offset="0.7664" stop-color="#5C0092"/>
<stop offset="0.8269" stop-color="#4C0078"/>
<stop offset="0.886" stop-color="#370057"/>
<stop offset="0.9432" stop-color="#1E002F"/>
<stop offset="0.9994" stop-color="#000001"/>
<stop offset="1"/>
</radialGradient>
<radialGradient id="paint18_radial_3_9816" cx="0" cy="0" r="1" gradientUnits="userSpaceOnUse" gradientTransform="translate(1252.79 547.255) scale(6.99933)">
<stop offset="0.5642" stop-color="#7000B2"/>
<stop offset="0.6383" stop-color="#6E00AE"/>
<stop offset="0.704" stop-color="#6700A4"/>
<stop offset="0.7664" stop-color="#5C0092"/>
<stop offset="0.8269" stop-color="#4C0078"/>
<stop offset="0.886" stop-color="#370057"/>
<stop offset="0.9432" stop-color="#1E002F"/>
<stop offset="0.9994" stop-color="#000001"/>
<stop offset="1"/>
</radialGradient>
<radialGradient id="paint19_radial_3_9816" cx="0" cy="0" r="1" gradientUnits="userSpaceOnUse" gradientTransform="translate(115.936 178.134) scale(6.99905)">
<stop offset="0.5642" stop-color="#7000B2"/>
<stop offset="0.6383" stop-color="#6E00AE"/>
<stop offset="0.704" stop-color="#6700A4"/>
<stop offset="0.7664" stop-color="#5C0092"/>
<stop offset="0.8269" stop-color="#4C0078"/>
<stop offset="0.886" stop-color="#370057"/>
<stop offset="0.9432" stop-color="#1E002F"/>
<stop offset="0.9994" stop-color="#000001"/>
<stop offset="1"/>
</radialGradient>
<radialGradient id="paint20_radial_3_9816" cx="0" cy="0" r="1" gradientUnits="userSpaceOnUse" gradientTransform="translate(1566 530.157) scale(6.99905)">
<stop offset="0.5642" stop-color="#F50000"/>
<stop offset="0.6284" stop-color="#F10000"/>
<stop offset="0.6852" stop-color="#E70000"/>
<stop offset="0.7393" stop-color="#D50000"/>
<stop offset="0.7917" stop-color="#BB0000"/>
<stop offset="0.8429" stop-color="#9A0000"/>
<stop offset="0.8933" stop-color="#720000"/>
<stop offset="0.9428" stop-color="#420000"/>
<stop offset="0.9906" stop-color="#0C0000"/>
<stop offset="1"/>
</radialGradient>
<radialGradient id="paint21_radial_3_9816" cx="0" cy="0" r="1" gradientUnits="userSpaceOnUse" gradientTransform="translate(1515.46 599.091) scale(6.99905)">
<stop offset="0.5642" stop-color="#F50000"/>
<stop offset="0.6284" stop-color="#F10000"/>
<stop offset="0.6852" stop-color="#E70000"/>
<stop offset="0.7393" stop-color="#D50000"/>
<stop offset="0.7917" stop-color="#BB0000"/>
<stop offset="0.8429" stop-color="#9A0000"/>
<stop offset="0.8933" stop-color="#720000"/>
<stop offset="0.9428" stop-color="#420000"/>
<stop offset="0.9906" stop-color="#0C0000"/>
<stop offset="1"/>
</radialGradient>
<radialGradient id="paint22_radial_3_9816" cx="0" cy="0" r="1" gradientUnits="userSpaceOnUse" gradientTransform="translate(1716.1 744.541) scale(15.581)">
<stop offset="0.5642" stop-color="#6E008B"/>
<stop offset="0.6471" stop-color="#6B0087"/>
<stop offset="0.7204" stop-color="#63007D"/>
<stop offset="0.7902" stop-color="#54006B"/>
<stop offset="0.8578" stop-color="#400051"/>
<stop offset="0.9239" stop-color="#260030"/>
<stop offset="0.9879" stop-color="#070008"/>
<stop offset="1"/>
</radialGradient>
<radialGradient id="paint23_radial_3_9816" cx="0" cy="0" r="1" gradientUnits="userSpaceOnUse" gradientTransform="translate(1457.09 936.037) scale(15.581)">
<stop offset="0.5642" stop-color="#EA8100"/>
<stop offset="0.6297" stop-color="#E67F00"/>
<stop offset="0.6877" stop-color="#DC7900"/>
<stop offset="0.743" stop-color="#CA6F00"/>
<stop offset="0.7965" stop-color="#B06100"/>
<stop offset="0.8487" stop-color="#8F4F00"/>
<stop offset="0.9001" stop-color="#673900"/>
<stop offset="0.95" stop-color="#371F00"/>
<stop offset="0.9989" stop-color="#010100"/>
<stop offset="1"/>
</radialGradient>
<radialGradient id="paint24_radial_3_9816" cx="0" cy="0" r="1" gradientUnits="userSpaceOnUse" gradientTransform="translate(1681.54 870.276) scale(6.99905)">
<stop offset="0.5642" stop-color="#7000B2"/>
<stop offset="0.6383" stop-color="#6E00AE"/>
<stop offset="0.704" stop-color="#6700A4"/>
<stop offset="0.7664" stop-color="#5C0092"/>
<stop offset="0.8269" stop-color="#4C0078"/>
<stop offset="0.886" stop-color="#370057"/>
<stop offset="0.9432" stop-color="#1E002F"/>
<stop offset="0.9994" stop-color="#000001"/>
<stop offset="1"/>
</radialGradient>
<radialGradient id="paint25_radial_3_9816" cx="0" cy="0" r="1" gradientUnits="userSpaceOnUse" gradientTransform="translate(1559 841.264) scale(6.99905)">
<stop offset="0.5642" stop-color="#7000B2"/>
<stop offset="0.6383" stop-color="#6E00AE"/>
<stop offset="0.704" stop-color="#6700A4"/>
<stop offset="0.7664" stop-color="#5C0092"/>
<stop offset="0.8269" stop-color="#4C0078"/>
<stop offset="0.886" stop-color="#370057"/>
<stop offset="0.9432" stop-color="#1E002F"/>
<stop offset="0.9994" stop-color="#000001"/>
<stop offset="1"/>
</radialGradient>
<radialGradient id="paint26_radial_3_9816" cx="0" cy="0" r="1" gradientUnits="userSpaceOnUse" gradientTransform="translate(704.05 427.853) scale(6.99905)">
<stop offset="0.5642" stop-color="#F50000"/>
<stop offset="0.6284" stop-color="#F10000"/>
<stop offset="0.6852" stop-color="#E70000"/>
<stop offset="0.7393" stop-color="#D50000"/>
<stop offset="0.7917" stop-color="#BB0000"/>
<stop offset="0.8429" stop-color="#9A0000"/>
<stop offset="0.8933" stop-color="#720000"/>
<stop offset="0.9428" stop-color="#420000"/>
<stop offset="0.9906" stop-color="#0C0000"/>
<stop offset="1"/>
</radialGradient>
<radialGradient id="paint27_radial_3_9816" cx="0" cy="0" r="1" gradientUnits="userSpaceOnUse" gradientTransform="translate(653.515 496.788) scale(6.99905)">
<stop offset="0.5642" stop-color="#F50000"/>
<stop offset="0.6284" stop-color="#F10000"/>
<stop offset="0.6852" stop-color="#E70000"/>
<stop offset="0.7393" stop-color="#D50000"/>
<stop offset="0.7917" stop-color="#BB0000"/>
<stop offset="0.8429" stop-color="#9A0000"/>
<stop offset="0.8933" stop-color="#720000"/>
<stop offset="0.9428" stop-color="#420000"/>
<stop offset="0.9906" stop-color="#0C0000"/>
<stop offset="1"/>
</radialGradient>
<radialGradient id="paint28_radial_3_9816" cx="0" cy="0" r="1" gradientUnits="userSpaceOnUse" gradientTransform="translate(824.919 15.5813) scale(15.5813)">
<stop offset="0.5642" stop-color="#EA8100"/>
<stop offset="0.6297" stop-color="#E67F00"/>
<stop offset="0.6877" stop-color="#DC7900"/>
<stop offset="0.743" stop-color="#CA6F00"/>
<stop offset="0.7965" stop-color="#B06100"/>
<stop offset="0.8487" stop-color="#8F4F00"/>
<stop offset="0.9001" stop-color="#673900"/>
<stop offset="0.95" stop-color="#371F00"/>
<stop offset="0.9989" stop-color="#010100"/>
<stop offset="1"/>
</radialGradient>
<radialGradient id="paint29_radial_3_9816" cx="0" cy="0" r="1" gradientUnits="userSpaceOnUse" gradientTransform="translate(1191.57 31.162) scale(6.99905)">
<stop offset="0.5642" stop-color="#7000B2"/>
<stop offset="0.6383" stop-color="#6E00AE"/>
<stop offset="0.704" stop-color="#6700A4"/>
<stop offset="0.7664" stop-color="#5C0092"/>
<stop offset="0.8269" stop-color="#4C0078"/>
<stop offset="0.886" stop-color="#370057"/>
<stop offset="0.9432" stop-color="#1E002F"/>
<stop offset="0.9994" stop-color="#000001"/>
<stop offset="1"/>
</radialGradient>
<radialGradient id="paint30_radial_3_9816" cx="0" cy="0" r="1" gradientUnits="userSpaceOnUse" gradientTransform="translate(1055.68 90.7469) scale(6.99905)">
<stop offset="0.5642" stop-color="#7000B2"/>
<stop offset="0.6383" stop-color="#6E00AE"/>
<stop offset="0.704" stop-color="#6700A4"/>
<stop offset="0.7664" stop-color="#5C0092"/>
<stop offset="0.8269" stop-color="#4C0078"/>
<stop offset="0.886" stop-color="#370057"/>
<stop offset="0.9432" stop-color="#1E002F"/>
<stop offset="0.9994" stop-color="#000001"/>
<stop offset="1"/>
</radialGradient>
<radialGradient id="paint31_radial_3_9816" cx="0" cy="0" r="1" gradientUnits="userSpaceOnUse" gradientTransform="translate(835.481 102.062) scale(6.99905)">
<stop offset="0.5642" stop-color="#F50000"/>
<stop offset="0.6284" stop-color="#F10000"/>
<stop offset="0.6852" stop-color="#E70000"/>
<stop offset="0.7393" stop-color="#D50000"/>
<stop offset="0.7917" stop-color="#BB0000"/>
<stop offset="0.8429" stop-color="#9A0000"/>
<stop offset="0.8933" stop-color="#720000"/>
<stop offset="0.9428" stop-color="#420000"/>
<stop offset="0.9906" stop-color="#0C0000"/>
<stop offset="1"/>
</radialGradient>
<radialGradient id="paint32_radial_3_9816" cx="0" cy="0" r="1" gradientUnits="userSpaceOnUse" gradientTransform="translate(818.766 655.515) scale(6.99905)">
<stop offset="0.5642" stop-color="#F50000"/>
<stop offset="0.6284" stop-color="#F10000"/>
<stop offset="0.6852" stop-color="#E70000"/>
<stop offset="0.7393" stop-color="#D50000"/>
<stop offset="0.7917" stop-color="#BB0000"/>
<stop offset="0.8429" stop-color="#9A0000"/>
<stop offset="0.8933" stop-color="#720000"/>
<stop offset="0.9428" stop-color="#420000"/>
<stop offset="0.9906" stop-color="#0C0000"/>
<stop offset="1"/>
</radialGradient>
<radialGradient id="paint33_radial_3_9816" cx="0" cy="0" r="1" gradientUnits="userSpaceOnUse" gradientTransform="translate(460.279 680.315) scale(15.581)">
<stop offset="0.5642" stop-color="#EA8100"/>
<stop offset="0.6297" stop-color="#E67F00"/>
<stop offset="0.6877" stop-color="#DC7900"/>
<stop offset="0.743" stop-color="#CA6F00"/>
<stop offset="0.7965" stop-color="#B06100"/>
<stop offset="0.8487" stop-color="#8F4F00"/>
<stop offset="0.9001" stop-color="#673900"/>
<stop offset="0.95" stop-color="#371F00"/>
<stop offset="0.9989" stop-color="#010100"/>
<stop offset="1"/>
</radialGradient>
<radialGradient id="paint34_radial_3_9816" cx="0" cy="0" r="1" gradientUnits="userSpaceOnUse" gradientTransform="translate(595.145 833.737) scale(15.581)">
<stop offset="0.5642" stop-color="#EA8100"/>
<stop offset="0.6297" stop-color="#E67F00"/>
<stop offset="0.6877" stop-color="#DC7900"/>
<stop offset="0.743" stop-color="#CA6F00"/>
<stop offset="0.7965" stop-color="#B06100"/>
<stop offset="0.8487" stop-color="#8F4F00"/>
<stop offset="0.9001" stop-color="#673900"/>
<stop offset="0.95" stop-color="#371F00"/>
<stop offset="0.9989" stop-color="#010100"/>
<stop offset="1"/>
</radialGradient>
<radialGradient id="paint35_radial_3_9816" cx="0" cy="0" r="1" gradientUnits="userSpaceOnUse" gradientTransform="translate(697.051 738.957) scale(6.99905)">
<stop offset="0.5642" stop-color="#7000B2"/>
<stop offset="0.6383" stop-color="#6E00AE"/>
<stop offset="0.704" stop-color="#6700A4"/>
<stop offset="0.7664" stop-color="#5C0092"/>
<stop offset="0.8269" stop-color="#4C0078"/>
<stop offset="0.886" stop-color="#370057"/>
<stop offset="0.9432" stop-color="#1E002F"/>
<stop offset="0.9994" stop-color="#000001"/>
<stop offset="1"/>
</radialGradient>
<radialGradient id="paint36_radial_3_9816" cx="0" cy="0" r="1" gradientUnits="userSpaceOnUse" gradientTransform="translate(35.7766 903.94) scale(35.7755)">
<stop offset="0.5642" stop-color="#B82B00"/>
<stop offset="0.6372" stop-color="#B42A00"/>
<stop offset="0.7019" stop-color="#AA2800"/>
<stop offset="0.7634" stop-color="#982300"/>
<stop offset="0.823" stop-color="#7E1D00"/>
<stop offset="0.8812" stop-color="#5D1600"/>
<stop offset="0.9384" stop-color="#350C00"/>
<stop offset="0.9938" stop-color="#060100"/>
<stop offset="1"/>
</radialGradient>
<radialGradient id="paint37_radial_3_9816" cx="0" cy="0" r="1" gradientUnits="userSpaceOnUse" gradientTransform="translate(306.378 862.118) scale(31.1623)">
<stop offset="0.5642" stop-color="#B82B00"/>
<stop offset="0.6372" stop-color="#B42A00"/>
<stop offset="0.7019" stop-color="#AA2800"/>
<stop offset="0.7634" stop-color="#982300"/>
<stop offset="0.823" stop-color="#7E1D00"/>
<stop offset="0.8812" stop-color="#5D1600"/>
<stop offset="0.9384" stop-color="#350C00"/>
<stop offset="0.9938" stop-color="#060100"/>
<stop offset="1"/>
</radialGradient>
<radialGradient id="paint38_radial_3_9816" cx="0" cy="0" r="1" gradientUnits="userSpaceOnUse" gradientTransform="translate(685.59 1096.31) scale(15.581)">
<stop offset="0.5642" stop-color="#F50000"/>
<stop offset="0.6284" stop-color="#F10000"/>
<stop offset="0.6852" stop-color="#E70000"/>
<stop offset="0.7393" stop-color="#D50000"/>
<stop offset="0.7917" stop-color="#BB0000"/>
<stop offset="0.8429" stop-color="#9A0000"/>
<stop offset="0.8933" stop-color="#720000"/>
<stop offset="0.9428" stop-color="#420000"/>
<stop offset="0.9906" stop-color="#0C0000"/>
<stop offset="1"/>
</radialGradient>
<radialGradient id="paint39_radial_3_9816" cx="0" cy="0" r="1" gradientUnits="userSpaceOnUse" gradientTransform="translate(856.285 939.718) scale(15.581)">
<stop offset="0.5642" stop-color="#EA8100"/>
<stop offset="0.6297" stop-color="#E67F00"/>
<stop offset="0.6877" stop-color="#DC7900"/>
<stop offset="0.743" stop-color="#CA6F00"/>
<stop offset="0.7965" stop-color="#B06100"/>
<stop offset="0.8487" stop-color="#8F4F00"/>
<stop offset="0.9001" stop-color="#673900"/>
<stop offset="0.95" stop-color="#371F00"/>
<stop offset="0.9989" stop-color="#010100"/>
<stop offset="1"/>
</radialGradient>
<radialGradient id="paint40_radial_3_9816" cx="0" cy="0" r="1" gradientUnits="userSpaceOnUse" gradientTransform="translate(337.54 1065.15) scale(15.581)">
<stop offset="0.5642" stop-color="#EA8100"/>
<stop offset="0.6297" stop-color="#E67F00"/>
<stop offset="0.6877" stop-color="#DC7900"/>
<stop offset="0.743" stop-color="#CA6F00"/>
<stop offset="0.7965" stop-color="#B06100"/>
<stop offset="0.8487" stop-color="#8F4F00"/>
<stop offset="0.9001" stop-color="#673900"/>
<stop offset="0.95" stop-color="#371F00"/>
<stop offset="0.9989" stop-color="#010100"/>
<stop offset="1"/>
</radialGradient>
<radialGradient id="paint41_radial_3_9816" cx="0" cy="0" r="1" gradientUnits="userSpaceOnUse" gradientTransform="translate(664.514 942.341) scale(15.5807)">
<stop offset="0.5642" stop-color="#EA8100"/>
<stop offset="0.6297" stop-color="#E67F00"/>
<stop offset="0.6877" stop-color="#DC7900"/>
<stop offset="0.743" stop-color="#CA6F00"/>
<stop offset="0.7965" stop-color="#B06100"/>
<stop offset="0.8487" stop-color="#8F4F00"/>
<stop offset="0.9001" stop-color="#673900"/>
<stop offset="0.95" stop-color="#371F00"/>
<stop offset="0.9989" stop-color="#010100"/>
<stop offset="1"/>
</radialGradient>
<radialGradient id="paint42_radial_3_9816" cx="0" cy="0" r="1" gradientUnits="userSpaceOnUse" gradientTransform="translate(799.38 1095.76) scale(15.581)">
<stop offset="0.5642" stop-color="#EA8100"/>
<stop offset="0.6297" stop-color="#E67F00"/>
<stop offset="0.6877" stop-color="#DC7900"/>
<stop offset="0.743" stop-color="#CA6F00"/>
<stop offset="0.7965" stop-color="#B06100"/>
<stop offset="0.8487" stop-color="#8F4F00"/>
<stop offset="0.9001" stop-color="#673900"/>
<stop offset="0.95" stop-color="#371F00"/>
<stop offset="0.9989" stop-color="#010100"/>
<stop offset="1"/>
</radialGradient>
<radialGradient id="paint43_radial_3_9816" cx="0" cy="0" r="1" gradientUnits="userSpaceOnUse" gradientTransform="translate(901.287 1000.99) scale(6.99905)">
<stop offset="0.5642" stop-color="#7000B2"/>
<stop offset="0.6383" stop-color="#6E00AE"/>
<stop offset="0.704" stop-color="#6700A4"/>
<stop offset="0.7664" stop-color="#5C0092"/>
<stop offset="0.8269" stop-color="#4C0078"/>
<stop offset="0.886" stop-color="#370057"/>
<stop offset="0.9432" stop-color="#1E002F"/>
<stop offset="0.9994" stop-color="#000001"/>
<stop offset="1"/>
</radialGradient>
<radialGradient id="paint44_radial_3_9816" cx="0" cy="0" r="1" gradientUnits="userSpaceOnUse" gradientTransform="translate(671.514 779.103) scale(6.99905)">
<stop offset="0.5642" stop-color="#7000B2"/>
<stop offset="0.6383" stop-color="#6E00AE"/>
<stop offset="0.704" stop-color="#6700A4"/>
<stop offset="0.7664" stop-color="#5C0092"/>
<stop offset="0.8269" stop-color="#4C0078"/>
<stop offset="0.886" stop-color="#370057"/>
<stop offset="0.9432" stop-color="#1E002F"/>
<stop offset="0.9994" stop-color="#000001"/>
<stop offset="1"/>
</radialGradient>
<radialGradient id="paint45_radial_3_9816" cx="0" cy="0" r="1" gradientUnits="userSpaceOnUse" gradientTransform="translate(196.44 801.967) scale(15.5807)">
<stop offset="0.5642" stop-color="#6E008B"/>
<stop offset="0.6471" stop-color="#6B0087"/>
<stop offset="0.7204" stop-color="#63007D"/>
<stop offset="0.7902" stop-color="#54006B"/>
<stop offset="0.8578" stop-color="#400051"/>
<stop offset="0.9239" stop-color="#260030"/>
<stop offset="0.9879" stop-color="#070008"/>
<stop offset="1"/>
</radialGradient>
<radialGradient id="paint46_radial_3_9816" cx="0" cy="0" r="1" gradientUnits="userSpaceOnUse" gradientTransform="translate(161.879 927.701) scale(6.99905)">
<stop offset="0.5642" stop-color="#7000B2"/>
<stop offset="0.6383" stop-color="#6E00AE"/>
<stop offset="0.704" stop-color="#6700A4"/>
<stop offset="0.7664" stop-color="#5C0092"/>
<stop offset="0.8269" stop-color="#4C0078"/>
<stop offset="0.886" stop-color="#370057"/>
<stop offset="0.9432" stop-color="#1E002F"/>
<stop offset="0.9994" stop-color="#000001"/>
<stop offset="1"/>
</radialGradient>
<radialGradient id="paint47_radial_3_9816" cx="0" cy="0" r="1" gradientUnits="userSpaceOnUse" gradientTransform="translate(39.3383 898.682) scale(6.99905)">
<stop offset="0.5642" stop-color="#7000B2"/>
<stop offset="0.6383" stop-color="#6E00AE"/>
<stop offset="0.704" stop-color="#6700A4"/>
<stop offset="0.7664" stop-color="#5C0092"/>
<stop offset="0.8269" stop-color="#4C0078"/>
<stop offset="0.886" stop-color="#370057"/>
<stop offset="0.9432" stop-color="#1E002F"/>
<stop offset="0.9994" stop-color="#000001"/>
<stop offset="1"/>
</radialGradient>
<radialGradient id="paint48_radial_3_9816" cx="0" cy="0" r="1" gradientUnits="userSpaceOnUse" gradientTransform="translate(1913.91 942.268) rotate(180) scale(35.7772)">
<stop offset="0.5642" stop-color="#B82B00"/>
<stop offset="0.6372" stop-color="#B42A00"/>
<stop offset="0.7019" stop-color="#AA2800"/>
<stop offset="0.7634" stop-color="#982300"/>
<stop offset="0.823" stop-color="#7E1D00"/>
<stop offset="0.8812" stop-color="#5D1600"/>
<stop offset="0.9384" stop-color="#350C00"/>
<stop offset="0.9938" stop-color="#060100"/>
<stop offset="1"/>
</radialGradient>
<radialGradient id="paint49_radial_3_9816" cx="0" cy="0" r="1" gradientUnits="userSpaceOnUse" gradientTransform="translate(1643.31 984.087) rotate(180) scale(31.1623)">
<stop offset="0.5642" stop-color="#B82B00"/>
<stop offset="0.6372" stop-color="#B42A00"/>
<stop offset="0.7019" stop-color="#AA2800"/>
<stop offset="0.7634" stop-color="#982300"/>
<stop offset="0.823" stop-color="#7E1D00"/>
<stop offset="0.8812" stop-color="#5D1600"/>
<stop offset="0.9384" stop-color="#350C00"/>
<stop offset="0.9938" stop-color="#060100"/>
<stop offset="1"/>
</radialGradient>
<radialGradient id="paint50_radial_3_9816" cx="0" cy="0" r="1" gradientUnits="userSpaceOnUse" gradientTransform="translate(1093.41 906.489) rotate(180) scale(15.581)">
<stop offset="0.5642" stop-color="#EA8100"/>
<stop offset="0.6297" stop-color="#E67F00"/>
<stop offset="0.6877" stop-color="#DC7900"/>
<stop offset="0.743" stop-color="#CA6F00"/>
<stop offset="0.7965" stop-color="#B06100"/>
<stop offset="0.8487" stop-color="#8F4F00"/>
<stop offset="0.9001" stop-color="#673900"/>
<stop offset="0.95" stop-color="#371F00"/>
<stop offset="0.9989" stop-color="#010100"/>
<stop offset="1"/>
</radialGradient>
<radialGradient id="paint51_radial_3_9816" cx="0" cy="0" r="1" gradientUnits="userSpaceOnUse" gradientTransform="translate(1612.15 781.055) rotate(180) scale(15.5782)">
<stop offset="0.5642" stop-color="#EA8100"/>
<stop offset="0.6297" stop-color="#E67F00"/>
<stop offset="0.6877" stop-color="#DC7900"/>
<stop offset="0.743" stop-color="#CA6F00"/>
<stop offset="0.7965" stop-color="#B06100"/>
<stop offset="0.8487" stop-color="#8F4F00"/>
<stop offset="0.9001" stop-color="#673900"/>
<stop offset="0.95" stop-color="#371F00"/>
<stop offset="0.9989" stop-color="#010100"/>
<stop offset="1"/>
</radialGradient>
<radialGradient id="paint52_radial_3_9816" cx="0" cy="0" r="1" gradientUnits="userSpaceOnUse" gradientTransform="translate(1285.18 903.864) rotate(180) scale(15.581)">
<stop offset="0.5642" stop-color="#EA8100"/>
<stop offset="0.6297" stop-color="#E67F00"/>
<stop offset="0.6877" stop-color="#DC7900"/>
<stop offset="0.743" stop-color="#CA6F00"/>
<stop offset="0.7965" stop-color="#B06100"/>
<stop offset="0.8487" stop-color="#8F4F00"/>
<stop offset="0.9001" stop-color="#673900"/>
<stop offset="0.95" stop-color="#371F00"/>
<stop offset="0.9989" stop-color="#010100"/>
<stop offset="1"/>
</radialGradient>
<radialGradient id="paint53_radial_3_9816" cx="0" cy="0" r="1" gradientUnits="userSpaceOnUse" gradientTransform="translate(1278.18 1067.1) rotate(180) scale(6.99905)">
<stop offset="0.5642" stop-color="#7000B2"/>
<stop offset="0.6383" stop-color="#6E00AE"/>
<stop offset="0.704" stop-color="#6700A4"/>
<stop offset="0.7664" stop-color="#5C0092"/>
<stop offset="0.8269" stop-color="#4C0078"/>
<stop offset="0.886" stop-color="#370057"/>
<stop offset="0.9432" stop-color="#1E002F"/>
<stop offset="0.9994" stop-color="#000001"/>
<stop offset="1"/>
</radialGradient>
<radialGradient id="paint54_radial_3_9816" cx="0" cy="0" r="1" gradientUnits="userSpaceOnUse" gradientTransform="translate(1753.25 1044.24) rotate(180) scale(15.581)">
<stop offset="0.5642" stop-color="#6E008B"/>
<stop offset="0.6471" stop-color="#6B0087"/>
<stop offset="0.7204" stop-color="#63007D"/>
<stop offset="0.7902" stop-color="#54006B"/>
<stop offset="0.8578" stop-color="#400051"/>
<stop offset="0.9239" stop-color="#260030"/>
<stop offset="0.9879" stop-color="#070008"/>
<stop offset="1"/>
</radialGradient>
<radialGradient id="paint55_radial_3_9816" cx="0" cy="0" r="1" gradientUnits="userSpaceOnUse" gradientTransform="translate(1787.81 918.51) rotate(180) scale(6.99905)">
<stop offset="0.5642" stop-color="#7000B2"/>
<stop offset="0.6383" stop-color="#6E00AE"/>
<stop offset="0.704" stop-color="#6700A4"/>
<stop offset="0.7664" stop-color="#5C0092"/>
<stop offset="0.8269" stop-color="#4C0078"/>
<stop offset="0.886" stop-color="#370057"/>
<stop offset="0.9432" stop-color="#1E002F"/>
<stop offset="0.9994" stop-color="#000001"/>
<stop offset="1"/>
</radialGradient>
<radialGradient id="paint56_radial_3_9816" cx="0" cy="0" r="1" gradientUnits="userSpaceOnUse" gradientTransform="translate(1910.35 947.523) rotate(180) scale(6.99905)">
<stop offset="0.5642" stop-color="#7000B2"/>
<stop offset="0.6383" stop-color="#6E00AE"/>
<stop offset="0.704" stop-color="#6700A4"/>
<stop offset="0.7664" stop-color="#5C0092"/>
<stop offset="0.8269" stop-color="#4C0078"/>
<stop offset="0.886" stop-color="#370057"/>
<stop offset="0.9432" stop-color="#1E002F"/>
<stop offset="0.9994" stop-color="#000001"/>
<stop offset="1"/>
</radialGradient>
<radialGradient id="paint57_radial_3_9816" cx="0" cy="0" r="1" gradientUnits="userSpaceOnUse" gradientTransform="translate(467.279 517.077) scale(6.99905)">
<stop offset="0.5642" stop-color="#7000B2"/>
<stop offset="0.6383" stop-color="#6E00AE"/>
<stop offset="0.704" stop-color="#6700A4"/>
<stop offset="0.7664" stop-color="#5C0092"/>
<stop offset="0.8269" stop-color="#4C0078"/>
<stop offset="0.886" stop-color="#370057"/>
<stop offset="0.9432" stop-color="#1E002F"/>
<stop offset="0.9994" stop-color="#000001"/>
<stop offset="1"/>
</radialGradient>
<clipPath id="clip0_3_9816">
<rect width="2040.98" height="1111.9" fill="white"/>
</clipPath>
</defs>
</svg>
